# xmcd
#
# Track frame offsets: 
#        150
#        17749
#        30648
#        44248
#        60074
#        84718
#        103598
#        120766
#        144139
#        159565
#
# Disc length: 2351 seconds
#
# Revision: 0
# Processed by: cddbd v1.5.2PL0 Copyright (c) Steve Scherf et al.
# Submitted via: ExactAudioCopy v1.0b4
#
DISCID=72092d0a
DTITLE=Red Hot Blues Sisters - Red On Blue
DYEAR=2008
DGENRE=Blues
TTITLE0=3B Blues
TTITLE1=Can't Judge A Book
TTITLE2=Caffeine
TTITLE3=One More Heartache
TTITLE4=Enough To Cry
TTITLE5=Graveyard Blues
TTITLE6=Bring It On Home
TTITLE7=Help Yourself
TTITLE8=Mama's Business (Auth. Andy Razaff)
TTITLE9=Rb Blues
EXTD=
EXTT0=
EXTT1=
EXTT2=
EXTT3=
EXTT4=
EXTT5=
EXTT6=
EXTT7=
EXTT8=
EXTT9=
PLAYORDER=
